<svg xmlns="http://www.w3.org/2000/svg" width="21" height="21" viewBox="0 0 21 21" fill="none">
    <g clip-path="url(#clip0_171_854)">
        <path d="M10.7684 2.65949L12.597 7.10925C12.6413 7.21724 12.7136 7.31084 12.8061 7.37997C12.8986 7.44909 13.0079 7.49111 13.1221 7.5015L17.8027 7.91464C17.9269 7.92484 18.0454 7.97242 18.1431 8.05136C18.2408 8.13031 18.3133 8.23707 18.3516 8.35814C18.3898 8.47922 18.3921 8.60916 18.358 8.73152C18.3239 8.85389 18.255 8.96318 18.1601 9.04557L14.6091 12.2085C14.5228 12.2859 14.4586 12.3857 14.4234 12.4974C14.3882 12.6091 14.3833 12.7284 14.4091 12.8427L15.4734 17.548C15.5015 17.6709 15.4936 17.7995 15.4507 17.9179C15.4077 18.0362 15.3316 18.139 15.2318 18.2135C15.132 18.288 15.0129 18.3308 14.8895 18.3367C14.766 18.3425 14.6436 18.3112 14.5374 18.2465L10.5149 15.7548C10.4172 15.6941 10.305 15.662 10.1906 15.662C10.0762 15.662 9.964 15.6941 9.86626 15.7548L5.84371 18.2465C5.73758 18.3112 5.61515 18.3425 5.49168 18.3367C5.36821 18.3308 5.24917 18.288 5.14938 18.2135C5.04959 18.139 4.97347 18.0362 4.9305 17.9179C4.88753 17.7995 4.87962 17.6709 4.90774 17.548L5.97202 12.8427C5.99789 12.7284 5.99296 12.6091 5.95776 12.4974C5.92256 12.3857 5.85839 12.2859 5.77208 12.2085L2.22106 9.04557C2.12612 8.96318 2.05726 8.85389 2.02317 8.73152C1.98908 8.60916 1.99131 8.47922 2.02957 8.35814C2.06783 8.23707 2.14041 8.13031 2.23811 8.05136C2.33581 7.97242 2.45425 7.92484 2.57844 7.91464L7.25908 7.5015C7.37328 7.49111 7.48253 7.44909 7.57506 7.37997C7.66759 7.31084 7.73988 7.21724 7.78414 7.10925L9.61278 2.65949C9.66162 2.54445 9.74234 2.44649 9.845 2.37768C9.94766 2.30888 10.0678 2.27222 10.1906 2.27222C10.3134 2.27222 10.4335 2.30888 10.5362 2.37768C10.6388 2.44649 10.7195 2.54445 10.7684 2.65949Z" stroke="#818181" stroke-width="2" stroke-linecap="round" stroke-linejoin="round"/>
    </g>
    <defs>
        <clipPath id="clip0_171_854">
            <rect width="20.1521" height="20.5769" fill="white" transform="translate(0.114563 0.336548)"/>
        </clipPath>
    </defs>
</svg>