<svg xmlns="http://www.w3.org/2000/svg" width="19" height="19" viewBox="0 0 19 19" fill="none">
    <path d="M9.893 2.14495L11.5911 6.2537C11.6322 6.35341 11.6993 6.43984 11.7852 6.50367C11.8711 6.56749 11.9726 6.6063 12.0786 6.61589L16.425 6.99737C16.5403 7.00678 16.6503 7.05071 16.741 7.12361C16.8318 7.19651 16.8991 7.29509 16.9347 7.40688C16.9702 7.51868 16.9723 7.63866 16.9406 7.75165C16.909 7.86464 16.845 7.96555 16.7569 8.04163L13.4594 10.9621C13.3793 11.0336 13.3197 11.1258 13.287 11.2289C13.2543 11.332 13.2497 11.4422 13.2738 11.5477L14.262 15.8925C14.2882 16.006 14.2808 16.1247 14.2409 16.234C14.201 16.3433 14.1303 16.4382 14.0377 16.507C13.945 16.5757 13.8345 16.6153 13.7198 16.6207C13.6052 16.6261 13.4915 16.5972 13.3929 16.5375L9.65763 14.2367C9.56687 14.1806 9.46269 14.151 9.35647 14.151C9.25024 14.151 9.14606 14.1806 9.0553 14.2367L5.32002 16.5375C5.22146 16.5972 5.10777 16.6261 4.99312 16.6207C4.87847 16.6153 4.76793 16.5757 4.67527 16.507C4.5826 16.4382 4.51192 16.3433 4.47202 16.234C4.43212 16.1247 4.42477 16.006 4.45089 15.8925L5.43917 11.5477C5.46319 11.4422 5.45861 11.332 5.42592 11.2289C5.39323 11.1258 5.33365 11.0336 5.2535 10.9621L1.95607 8.04163C1.86791 7.96555 1.80396 7.86464 1.77231 7.75165C1.74066 7.63866 1.74273 7.51868 1.77825 7.40688C1.81378 7.29509 1.88117 7.19651 1.9719 7.12361C2.06262 7.05071 2.17261 7.00678 2.28793 6.99737L6.63431 6.61589C6.74035 6.6063 6.8418 6.56749 6.92772 6.50367C7.01364 6.43984 7.08077 6.35341 7.12187 6.2537L8.81993 2.14495C8.86528 2.03872 8.94024 1.94827 9.03556 1.88474C9.13089 1.8212 9.24243 1.78735 9.35647 1.78735C9.4705 1.78735 9.58204 1.8212 9.67737 1.88474C9.7727 1.94827 9.84765 2.03872 9.893 2.14495Z" stroke="#FF4D4D" stroke-width="2" stroke-linecap="round" stroke-linejoin="round"/>
</svg>